<?xml version="1.0" encoding="utf-8"?>
<!-- Generator: Adobe Illustrator 22.1.0, SVG Export Plug-In . SVG Version: 6.00 Build 0)  -->
<svg version="1.1" id="Camada_1" xmlns="http://www.w3.org/2000/svg" xmlns:xlink="http://www.w3.org/1999/xlink" x="0px" y="0px"
	 viewBox="0 0 144 46" style="enable-background:new 0 0 144 46;" xml:space="preserve">
<style type="text/css">
	.st0{clip-path:url(#SVGID_2_);}
	.st1{clip-path:url(#SVGID_4_);fill:#7F7F7F;}
	.st2{clip-path:url(#SVGID_6_);}
	.st3{clip-path:url(#SVGID_8_);fill:#7F7F7F;}
	.st4{clip-path:url(#SVGID_10_);}
	.st5{clip-path:url(#SVGID_12_);fill:#7F7F7F;}
	.st6{clip-path:url(#SVGID_14_);}
	.st7{clip-path:url(#SVGID_16_);fill:#7F7F7F;}
	.st8{clip-path:url(#SVGID_18_);}
	.st9{clip-path:url(#SVGID_20_);fill:#7F7F7F;}
	.st10{clip-path:url(#SVGID_22_);}
	.st11{clip-path:url(#SVGID_24_);fill:#7F7F7F;}
	.st12{clip-path:url(#SVGID_26_);}
	.st13{clip-path:url(#SVGID_28_);fill:#7F7F7F;}
	.st14{fill:url(#SVGID_29_);}
</style>
<g>
	<g>
		<g>
			<defs>
				<path id="SVGID_1_" d="M3.1,40.4c-1.8-0.7-2.2-1.8-2-3.4c0.3-2.6,1.8-3.1,4.5-3.1c1.2,0,2.6,0.1,3.8,0.5l-0.3,1.7
					c-1,0-2.4,0-3.6,0c-1.2,0-1.7,0-1.9,1.1c-0.1,0.8,0.1,0.9,0.9,1.3l2.1,0.8c1.9,0.7,2.2,1.7,2,3.4c-0.3,2.6-1.5,3.2-4.6,3.2
					c-0.8,0-2.3-0.1-4-0.5l0.3-1.8c2.2,0,3.1,0.1,3.6,0.1c1.5,0,2-0.2,2.2-1.2c0.1-0.8-0.1-0.9-0.8-1.2L3.1,40.4z"/>
			</defs>
			<clipPath id="SVGID_2_">
				<use xlink:href="#SVGID_1_"  style="overflow:visible;"/>
			</clipPath>
			<g class="st0">
				<defs>
					<rect id="SVGID_3_" x="-84.1" y="-248" width="312.3" height="555.5"/>
				</defs>
				<clipPath id="SVGID_4_">
					<use xlink:href="#SVGID_3_"  style="overflow:visible;"/>
				</clipPath>
				<rect x="-4.1" y="29.8" class="st1" width="17.7" height="20.2"/>
			</g>
		</g>
		<g>
			<defs>
				<path id="SVGID_5_" d="M13.4,33.8c0.5,0,0.8,0.3,0.7,0.8L14,35.4c-0.1,0.5-0.3,0.7-0.8,0.7h-1.1c-0.5,0-0.8-0.3-0.7-0.8l0.1-0.9
					c0-0.5,0.3-0.7,0.8-0.7H13.4z M10,45.6l1.2-8.2h2.5l-1.2,8.2H10z"/>
			</defs>
			<clipPath id="SVGID_6_">
				<use xlink:href="#SVGID_5_"  style="overflow:visible;"/>
			</clipPath>
			<g class="st2">
				<defs>
					<rect id="SVGID_7_" x="-84.1" y="-248" width="312.3" height="555.5"/>
				</defs>
				<clipPath id="SVGID_8_">
					<use xlink:href="#SVGID_7_"  style="overflow:visible;"/>
				</clipPath>
				<rect x="5.8" y="29.6" class="st3" width="12.4" height="20.1"/>
			</g>
		</g>
		<g>
			<defs>
				<path id="SVGID_9_" d="M21.8,45.3c-1,0.4-2.2,0.5-3.3,0.5c-3,0-4.2-1.3-3.7-4.4c0.4-3,1.6-4.2,4.6-4.2c1,0,2.3,0.2,3.2,0.5
					l-0.3,1.5c-1,0-1.9,0-2.5,0c-1.5,0-2.1,0.4-2.3,2.3c-0.3,2,0.1,2.3,1.6,2.3c0.6,0,1.7,0,2.6-0.2L21.8,45.3z"/>
			</defs>
			<clipPath id="SVGID_10_">
				<use xlink:href="#SVGID_9_"  style="overflow:visible;"/>
			</clipPath>
			<g class="st4">
				<defs>
					<rect id="SVGID_11_" x="-84.1" y="-248" width="312.3" height="555.5"/>
				</defs>
				<clipPath id="SVGID_12_">
					<use xlink:href="#SVGID_11_"  style="overflow:visible;"/>
				</clipPath>
				<rect x="10.6" y="33" class="st5" width="16.3" height="16.9"/>
			</g>
		</g>
		<g>
			<defs>
				<path id="SVGID_13_" d="M29.9,39.5h-0.6c-0.8,0-1.5,0.4-2.8,1l-0.7,5.1h-2.5l1.2-8.2h2V39c1.3-1.2,2.5-1.8,3.6-1.8h0.5
					L29.9,39.5z"/>
			</defs>
			<clipPath id="SVGID_14_">
				<use xlink:href="#SVGID_13_"  style="overflow:visible;"/>
			</clipPath>
			<g class="st6">
				<defs>
					<rect id="SVGID_15_" x="-84.1" y="-248" width="312.3" height="555.5"/>
				</defs>
				<clipPath id="SVGID_16_">
					<use xlink:href="#SVGID_15_"  style="overflow:visible;"/>
				</clipPath>
				<rect x="19.1" y="33.1" class="st7" width="15.5" height="16.7"/>
			</g>
		</g>
		<g>
			<defs>
				<path id="SVGID_17_" d="M35.2,40.8c0.8-0.1,1.3-0.3,1.4-1.1c0.1-0.8-0.3-0.8-1.3-0.8c-1.3,0-1.7,0.4-2,2L35.2,40.8z M38.2,45.2
					c-1.1,0.4-2.5,0.6-3.7,0.6c-3.3,0-4.3-1.5-3.9-4.5c0.4-3.3,1.8-4.1,4.9-4.1c3.1,0,3.9,1.1,3.6,2.8c-0.3,1.6-1.3,2.1-3.4,2.3
					l-2.5,0.2c0,1.2,0.6,1.4,1.7,1.4c0.8,0,2.2-0.1,3.2-0.2L38.2,45.2z"/>
			</defs>
			<clipPath id="SVGID_18_">
				<use xlink:href="#SVGID_17_"  style="overflow:visible;"/>
			</clipPath>
			<g class="st8">
				<defs>
					<rect id="SVGID_19_" x="-84.1" y="-248" width="312.3" height="555.5"/>
				</defs>
				<clipPath id="SVGID_20_">
					<use xlink:href="#SVGID_19_"  style="overflow:visible;"/>
				</clipPath>
				<rect x="26.4" y="33" class="st9" width="16.9" height="16.9"/>
			</g>
		</g>
		<g>
			<defs>
				<path id="SVGID_21_" d="M45,38.9c-1.6,0-2,0.3-2.3,2.5c-0.3,1.9-0.2,2.4,0.6,2.3c0.8,0,1.5-0.5,2.5-1.3l0.5-3.6L45,38.9L45,38.9
					z M47.9,45.6h-2v-1.5c-0.8,0.8-2,1.7-3.5,1.7c-1.8,0-2.7-1.2-2.3-4.4c0.5-3.6,1.9-4.2,3.8-4.2c0.9,0,1.9,0.1,2.7,0.2
					c0-0.5,0-1,0.1-1.6l0.3-1.8h2.5L47.9,45.6z"/>
			</defs>
			<clipPath id="SVGID_22_">
				<use xlink:href="#SVGID_21_"  style="overflow:visible;"/>
			</clipPath>
			<g class="st10">
				<defs>
					<rect id="SVGID_23_" x="-84.1" y="-248" width="312.3" height="555.5"/>
				</defs>
				<clipPath id="SVGID_24_">
					<use xlink:href="#SVGID_23_"  style="overflow:visible;"/>
				</clipPath>
				<rect x="35.9" y="29.8" class="st11" width="17.8" height="20.1"/>
			</g>
		</g>
		<g>
			<defs>
				<path id="SVGID_25_" d="M53.4,33.8c0.5,0,0.8,0.3,0.7,0.8L54,35.4c-0.1,0.5-0.3,0.7-0.8,0.7h-1.1c-0.5,0-0.8-0.3-0.7-0.8
					l0.1-0.9c0-0.5,0.3-0.7,0.8-0.7H53.4z M50,45.6l1.2-8.2h2.5l-1.2,8.2H50z"/>
			</defs>
			<clipPath id="SVGID_26_">
				<use xlink:href="#SVGID_25_"  style="overflow:visible;"/>
			</clipPath>
			<g class="st12">
				<defs>
					<rect id="SVGID_27_" x="-84.1" y="-248" width="312.3" height="555.5"/>
				</defs>
				<clipPath id="SVGID_28_">
					<use xlink:href="#SVGID_27_"  style="overflow:visible;"/>
				</clipPath>
				<rect x="45.8" y="29.6" class="st13" width="12.5" height="20.1"/>
			</g>
		</g>
	</g>
	<linearGradient id="SVGID_29_" gradientUnits="userSpaceOnUse" x1="3.5616" y1="19.6946" x2="169.3488" y2="19.6946">
		<stop  offset="0" style="stop-color:#00E971"/>
		<stop  offset="0.3029" style="stop-color:#02E973"/>
		<stop  offset="0.4629" style="stop-color:#0AEA7B"/>
		<stop  offset="0.5894" style="stop-color:#18EC87"/>
		<stop  offset="0.6985" style="stop-color:#2BEF9A"/>
		<stop  offset="0.7963" style="stop-color:#44F3B1"/>
		<stop  offset="0.886" style="stop-color:#62F7CE"/>
		<stop  offset="0.968" style="stop-color:#86FDF0"/>
		<stop  offset="1" style="stop-color:#96FFFF"/>
	</linearGradient>
	<path class="st14" d="M99.2,23.3c-4.7,0-8.5-3.7-8.5-8.3c0-4.5,3.8-8.3,8.5-8.3c4.7,0,8.5,3.7,8.5,8.3
		C107.6,19.6,103.8,23.3,99.2,23.3z M69.3,23.3c-4.7,0-8.5-3.7-8.5-8.3c0-4.5,3.8-8.3,8.5-8.3s8.5,3.7,8.5,8.3
		C77.7,19.6,73.9,23.3,69.3,23.3z M139.6,4.7c-2.8-2.7-6.4-4.2-10.2-4.3h-8.5c0,3.6,2.8,6.3,6.3,6.3l1.9,0c2.2,0,4.4,0.8,6,2.4
		c1.6,1.6,2.5,3.6,2.5,5.9c0,4.5-3.8,8.3-8.5,8.3c-2.2,0-4.4-0.8-6-2.4c-0.2-0.2-0.3-0.3-0.5-0.5c0,0-0.1-0.1-0.1-0.2
		c-0.1-0.1-0.2-0.2-0.3-0.3c-0.1-0.2-0.3-0.3-0.4-0.5c0,0,0,0,0,0c-0.2-0.3-0.3-0.6-0.5-0.9c-0.1-0.2-0.2-0.3-0.2-0.5
		c0-0.1,0-0.1-0.1-0.2l0,0c0-0.1-0.1-0.2-0.1-0.3c-0.2-0.6-0.3-1.3-0.3-2l0-5.2c-3.1,0.6-5.5,2.8-6.3,5.7c0-0.3,0-0.7,0-1.1
		c0-2.2-0.6-4.3-1.6-6c-2.4-5-7.6-8.4-13.6-8.4c-7.8,0-14.3,5.9-15,13.4C83.5,6.2,77,0.3,69.2,0.3c-7.9,0-14.3,6-15,13.5V0.2V0.2
		c-3.7,0-6.5,2.9-6.5,6.4v5.9v2.3c0,4.6-3.9,8.4-8.7,8.4c-4.8,0-8.7-3.8-8.7-8.4v-2.3V0.3l0.1-0.2l-0.1,0.1V0.2
		c-3.5,0-6.5,2.9-6.5,6.4V10v0.6v4.1c0,4.6-3.9,8.4-8.7,8.4c-4.8,0-8.7-3.8-8.7-8.4v-1.5V0.2C3,0.2,0,3,0,6.6v2.7v4.1v1.5
		C0,23,6.9,29.6,15.3,29.6c4.8,0,9.2-2.2,12-5.6c2.8,3.5,7,5.6,11.9,5.6c8.1,0,14.6-6.2,15.1-13.9c0.4,7.7,7,13.9,15,13.9
		c7.8,0,14.3-5.9,15-13.4c0.6,7.5,7.1,13.4,14.9,13.4c7,0,12.9-4.7,14.5-11c0-0.2,0.1-0.4,0.2-0.6v21.2c3.7,0,6.5-2.9,6.5-6.4V27
		c2.6,1.7,5.5,2.7,8.6,2.7c8.3,0,15-6.6,15-14.7C144,11.1,142.5,7.4,139.6,4.7z"/>
</g>
</svg>
